<?xml version="1.0" encoding="UTF-8" standalone="no"?>
<svg
   xmlns:dc="http://purl.org/dc/elements/1.1/"
   xmlns:cc="http://creativecommons.org/ns#"
   xmlns:rdf="http://www.w3.org/1999/02/22-rdf-syntax-ns#"
   xmlns:svg="http://www.w3.org/2000/svg"
   xmlns="http://www.w3.org/2000/svg"
   xmlns:sodipodi="http://sodipodi.sourceforge.net/DTD/sodipodi-0.dtd"
   xmlns:inkscape="http://www.inkscape.org/namespaces/inkscape"
   version="1.0"
   width="150pt"
   height="150.86626pt"
   viewBox="0 0 150 150.86626"
   preserveAspectRatio="xMidYMid meet"
   id="svg875"
   sodipodi:docname="logo.svg"
   inkscape:version="0.92.5 (2060ec1f9f, 2020-04-08)">
  <metadata
     id="metadata881">
    <rdf:RDF>
      <cc:Work
         rdf:about="">
        <dc:format>image/svg+xml</dc:format>
        <dc:type
           rdf:resource="http://purl.org/dc/dcmitype/StillImage" />
        <dc:title></dc:title>
      </cc:Work>
    </rdf:RDF>
  </metadata>
  <defs
     id="defs879" />
  <sodipodi:namedview
     pagecolor="#ffffff"
     bordercolor="#666666"
     borderopacity="1"
     objecttolerance="10"
     gridtolerance="10"
     guidetolerance="10"
     inkscape:pageopacity="0"
     inkscape:pageshadow="2"
     inkscape:window-width="1920"
     inkscape:window-height="1001"
     id="namedview877"
     showgrid="false"
     inkscape:zoom="0.54010695"
     inkscape:cx="350"
     inkscape:cy="101.37245"
     inkscape:window-x="-9"
     inkscape:window-y="-9"
     inkscape:window-maximized="1"
     inkscape:current-layer="svg875" />
  <g
     transform="matrix(0.02821336,0,0,-0.02821336,-37.805902,287.69278)"
     id="g873"
     style="fill:#000000;stroke:none">
    <path
       d="m 1745,10194 c -133,-33 -293,-191 -311,-305 -4,-24 -15,-54 -25,-67 -15,-20 -17,-38 -14,-117 2,-56 9,-104 18,-122 9,-16 19,-47 23,-68 9,-50 67,-129 129,-175 25,-19 74,-58 108,-86 34,-28 73,-55 87,-59 42,-13 150,-100 150,-121 0,-7 11,-25 25,-40 37,-40 36,-121 -2,-172 -60,-79 -81,-91 -156,-92 h -67 l -85,86 c -47,47 -85,90 -85,95 0,16 -65,69 -85,69 -11,0 -41,-18 -67,-41 -39,-33 -48,-47 -48,-73 0,-17 7,-41 15,-53 9,-12 22,-40 30,-63 17,-49 71,-117 99,-126 12,-4 32,-15 45,-25 12,-10 39,-21 60,-25 20,-3 50,-16 66,-27 26,-19 46,-22 156,-25 121,-4 126,-3 155,21 16,13 40,28 54,32 65,20 134,108 161,207 54,193 -20,381 -186,475 -51,29 -269,242 -317,311 -32,46 -33,50 -33,148 0,100 0,101 34,140 36,41 72,58 106,50 28,-7 72,-79 80,-132 10,-67 54,-127 118,-158 74,-36 98,-34 141,12 35,36 36,39 36,119 0,61 -7,102 -26,161 -22,70 -33,88 -85,139 -104,102 -111,106 -203,109 -44,2 -90,1 -101,-2 z"
       id="path849"
       inkscape:connector-curvature="0" />
    <path
       d="m 2967,8973 c -21,-5 -47,-53 -47,-86 0,-13 -11,-38 -25,-57 -20,-27 -25,-46 -25,-90 0,-50 3,-59 33,-88 30,-29 41,-33 115,-39 118,-9 116,-11 109,159 l -7,137 -36,35 c -37,35 -65,43 -117,29 z"
       id="path851"
       inkscape:connector-curvature="0" />
    <path
       d="m 3913,8968 c -21,-10 -43,-54 -43,-88 0,-9 -11,-31 -25,-50 -19,-26 -25,-46 -25,-88 0,-49 3,-58 34,-88 32,-31 41,-34 118,-40 113,-9 111,-11 106,159 l -5,134 -35,37 c -37,38 -79,46 -125,24 z"
       id="path853"
       inkscape:connector-curvature="0" />
    <path
       d="m 4856,8957 c -13,-13 -27,-43 -31,-66 -4,-23 -13,-48 -21,-55 -21,-21 -34,-62 -34,-107 0,-54 52,-104 118,-113 72,-10 119,-7 131,8 9,11 12,73 11,245 0,25 -9,43 -39,72 -47,48 -97,53 -135,16 z"
       id="path855"
       inkscape:connector-curvature="0" />
    <path
       d="m 1780,8283 c -8,-3 -26,-14 -39,-24 -13,-11 -34,-19 -47,-19 -27,0 -80,-51 -100,-97 -7,-17 -18,-34 -24,-38 -5,-3 -16,-28 -24,-56 -8,-27 -24,-61 -36,-76 -11,-14 -20,-35 -20,-47 0,-11 -9,-36 -20,-53 -18,-30 -26,-71 -61,-308 -25,-169 -30,-242 -27,-365 3,-111 7,-143 25,-180 11,-25 24,-56 28,-69 4,-12 18,-39 31,-58 13,-19 26,-43 29,-54 4,-10 10,-19 14,-19 5,0 22,-13 39,-30 18,-16 40,-30 49,-30 10,0 39,-11 65,-25 41,-22 60,-25 147,-25 83,0 112,4 167,25 36,14 79,25 95,25 15,0 34,7 41,16 7,8 21,25 32,36 10,11 23,38 28,60 4,22 18,52 29,67 12,16 24,54 29,87 4,33 17,82 28,109 12,29 25,96 32,160 6,61 15,137 19,170 6,45 4,87 -10,164 -11,58 -19,130 -19,160 0,36 -8,72 -22,101 -11,25 -24,71 -28,102 -5,40 -16,67 -34,88 -14,18 -26,38 -26,45 0,7 -14,24 -30,37 -17,13 -46,35 -64,51 -19,15 -40,27 -47,27 -8,0 -35,11 -61,25 -37,19 -61,25 -110,24 -35,0 -70,-3 -78,-6 z m 155,-279 c 15,-16 26,-44 30,-72 4,-26 12,-67 20,-92 7,-25 18,-92 25,-150 8,-71 21,-122 38,-160 23,-50 25,-66 26,-195 1,-134 0,-142 -27,-190 -15,-27 -27,-65 -27,-84 0,-37 -57,-134 -86,-145 -8,-3 -45,-6 -80,-6 -59,0 -67,3 -102,35 -21,19 -54,65 -73,102 l -34,67 1,196 c 1,174 3,201 23,255 12,33 24,87 28,120 3,33 17,83 30,110 12,28 23,62 23,76 0,15 8,37 19,50 10,13 26,40 36,59 22,43 31,50 73,50 23,0 40,-8 57,-26 z"
       id="path857"
       inkscape:connector-curvature="0" />
    <path
       d="m 3000,7420 c -16,-16 -20,-33 -20,-88 v -68 l 46,-38 c 39,-33 54,-39 91,-38 34,0 49,6 68,26 23,25 29,26 130,26 67,0 114,5 128,13 13,7 76,14 153,17 111,4 135,8 153,24 33,30 27,71 -16,111 l -38,35 h -337 c -325,0 -339,-1 -358,-20 z"
       id="path859"
       inkscape:connector-curvature="0" />
    <path
       d="m 4456,7425 c -21,-21 -31,-100 -18,-143 25,-83 132,-124 187,-72 24,23 37,25 143,31 64,3 130,11 145,17 16,7 73,12 128,12 108,0 160,14 178,48 18,34 13,45 -35,85 l -47,37 h -333 c -283,0 -335,-2 -348,-15 z"
       id="path861"
       inkscape:connector-curvature="0" />
    <path
       d="m 5874,7405 c -17,-42 -18,-112 -1,-141 42,-75 132,-101 182,-54 24,23 37,25 143,31 64,3 130,11 145,17 16,7 73,12 128,12 109,0 160,14 179,50 15,29 6,50 -42,88 l -40,32 h -340 -339 z"
       id="path863"
       inkscape:connector-curvature="0" />
    <path
       d="m 1676,6459 c -73,-33 -163,-112 -197,-173 -34,-60 -49,-96 -49,-117 0,-12 -9,-36 -19,-53 -16,-26 -19,-45 -16,-116 3,-51 12,-107 24,-140 11,-30 20,-62 21,-70 0,-16 62,-108 84,-125 37,-29 95,-75 145,-116 31,-26 72,-54 91,-63 50,-23 117,-73 138,-102 9,-14 27,-38 40,-54 17,-22 22,-41 22,-86 0,-57 -2,-61 -56,-121 l -56,-63 h -68 -67 l -87,86 c -47,48 -86,92 -86,99 0,6 -18,26 -40,44 -38,30 -41,31 -67,17 -57,-30 -93,-73 -93,-110 0,-19 4,-37 9,-41 5,-3 19,-31 31,-61 11,-31 33,-71 48,-90 29,-35 120,-88 173,-99 18,-4 46,-17 61,-28 52,-38 263,-36 309,4 12,11 34,22 48,26 14,3 35,16 47,28 11,12 27,26 35,31 46,29 86,130 96,243 7,77 -19,198 -51,237 -39,50 -137,144 -150,144 -7,0 -34,22 -62,48 -27,26 -71,65 -97,86 -42,35 -89,87 -164,185 -27,34 -39,115 -29,193 10,72 55,127 112,135 38,5 42,3 71,-36 19,-26 33,-59 37,-90 3,-27 15,-59 24,-72 10,-13 21,-31 25,-41 7,-19 119,-78 148,-78 12,0 39,17 60,39 l 39,39 v 84 c 0,58 -6,101 -20,141 -11,31 -20,62 -20,70 0,14 -109,128 -161,167 -29,22 -45,25 -124,28 -83,2 -96,0 -159,-29 z"
       id="path865"
       inkscape:connector-curvature="0" />
    <path
       d="m 2953,5255 c -14,-10 -26,-34 -33,-69 -6,-30 -20,-62 -30,-71 -16,-14 -20,-31 -20,-79 0,-57 2,-62 37,-93 30,-27 45,-33 84,-33 25,0 60,-3 76,-6 21,-4 35,-1 48,12 16,17 17,31 12,151 l -7,134 -35,34 c -27,28 -42,35 -72,35 -21,0 -48,-7 -60,-15 z"
       id="path867"
       inkscape:connector-curvature="0" />
    <path
       d="m 3900,5250 c -11,-11 -23,-38 -26,-60 -4,-22 -17,-54 -30,-72 -18,-24 -24,-45 -24,-84 0,-48 4,-56 36,-87 34,-32 43,-35 118,-40 52,-3 86,-2 94,6 10,8 13,43 11,146 l -3,136 -37,38 c -31,31 -43,37 -78,37 -28,0 -47,-6 -61,-20 z"
       id="path869"
       inkscape:connector-curvature="0" />
    <path
       d="m 4863,5258 c -21,-10 -43,-60 -43,-97 0,-8 -10,-25 -22,-38 -16,-17 -23,-39 -26,-81 -4,-55 -3,-58 35,-93 36,-34 43,-37 120,-42 61,-5 84,-3 92,7 9,11 13,96 11,246 -1,51 -60,110 -110,109 -19,0 -45,-5 -57,-11 z"
       id="path871"
       inkscape:connector-curvature="0" />
  </g>
</svg>
