<?xml version="1.0" encoding="UTF-8" standalone="no"?>
<svg
   xmlns:dc="http://purl.org/dc/elements/1.1/"
   xmlns:cc="http://creativecommons.org/ns#"
   xmlns:rdf="http://www.w3.org/1999/02/22-rdf-syntax-ns#"
   xmlns:svg="http://www.w3.org/2000/svg"
   xmlns="http://www.w3.org/2000/svg"
   xmlns:sodipodi="http://sodipodi.sourceforge.net/DTD/sodipodi-0.dtd"
   xmlns:inkscape="http://www.inkscape.org/namespaces/inkscape"
   version="1.0"
   width="150.00002pt"
   height="108.29762pt"
   viewBox="0 0 150.00002 108.29762"
   preserveAspectRatio="xMidYMid meet"
   id="svg1440"
   sodipodi:docname="arrow-test.svg"
   inkscape:version="0.92.5 (2060ec1f9f, 2020-04-08)">
  <metadata
     id="metadata1446">
    <rdf:RDF>
      <cc:Work
         rdf:about="">
        <dc:format>image/svg+xml</dc:format>
        <dc:type
           rdf:resource="http://purl.org/dc/dcmitype/StillImage" />
        <dc:title></dc:title>
      </cc:Work>
    </rdf:RDF>
  </metadata>
  <defs
     id="defs1444" />
  <sodipodi:namedview
     pagecolor="#ffffff"
     bordercolor="#666666"
     borderopacity="1"
     objecttolerance="10"
     gridtolerance="10"
     guidetolerance="10"
     inkscape:pageopacity="0"
     inkscape:pageshadow="2"
     inkscape:window-width="1920"
     inkscape:window-height="1001"
     id="namedview1442"
     showgrid="false"
     inkscape:zoom="0.54010695"
     inkscape:cx="405.79584"
     inkscape:cy="-9.4538452"
     inkscape:window-x="-9"
     inkscape:window-y="-9"
     inkscape:window-maximized="1"
     inkscape:current-layer="svg1440" />
  <g
     transform="matrix(0.02439632,0,0,-0.02439632,-22.481968,246.89076)"
     id="g1438"
     style="fill:#ffffff;stroke:none">
    <path
       d="m 4686,10104 c -21,-21 -12,-165 15,-244 11,-30 26,-80 35,-110 8,-30 21,-64 28,-75 7,-11 19,-37 26,-58 18,-56 47,-99 117,-172 66,-70 103,-83 123,-45 11,21 5,39 -31,90 -10,14 -32,68 -49,120 -17,52 -35,99 -39,105 -5,5 -14,33 -21,62 -6,29 -20,69 -31,90 -10,20 -19,44 -19,51 0,8 -8,29 -19,46 -10,17 -24,55 -31,84 -12,53 -30,72 -69,72 -11,0 -27,-7 -35,-16 z"
       id="path1418"
       inkscape:connector-curvature="0" />
    <path
       d="m 4164,9744 c -40,-45 -50,-83 -31,-121 8,-15 18,-44 22,-63 7,-34 34,-85 95,-180 16,-25 39,-64 51,-87 12,-24 26,-43 31,-43 4,0 8,-6 8,-12 0,-16 66,-151 97,-198 13,-19 44,-59 69,-88 44,-50 50,-53 88,-50 33,2 42,8 49,28 10,28 0,57 -38,109 -19,26 -22,37 -14,47 17,20 80,17 114,-6 17,-11 37,-20 46,-20 33,0 134,58 151,88 25,43 9,52 -90,52 -46,0 -93,5 -105,12 -12,6 -42,16 -67,23 -38,9 -45,15 -48,38 -2,15 4,42 13,60 19,36 52,158 61,229 5,40 4,48 -14,57 -44,23 -62,6 -92,-86 -12,-38 -28,-77 -34,-88 -7,-11 -18,-39 -25,-63 -6,-24 -19,-46 -27,-49 -19,-7 -64,12 -64,27 0,10 -14,43 -86,197 -13,28 -24,58 -24,65 0,7 -11,36 -25,63 -13,28 -25,55 -25,62 0,11 -30,33 -45,33 -4,0 -22,-16 -41,-36 z"
       id="path1420"
       inkscape:connector-curvature="0" />
    <path
       d="m 5060,9243 c -33,-12 -80,-67 -80,-93 0,-39 18,-50 85,-50 88,0 107,16 103,88 l -3,57 -45,2 c -25,1 -52,-1 -60,-4 z"
       id="path1422"
       inkscape:connector-curvature="0" />
    <path
       d="m 3968,9234 c -10,-3 -18,-10 -18,-15 0,-5 -18,-18 -40,-29 -22,-11 -40,-24 -40,-28 -1,-4 -5,-27 -10,-52 -11,-51 5,-186 25,-210 6,-8 18,-30 25,-49 7,-18 23,-44 34,-57 12,-13 34,-39 49,-59 16,-19 34,-35 41,-35 6,0 17,-9 24,-20 10,-17 23,-20 93,-20 88,0 107,7 157,53 26,26 32,38 32,74 0,73 -42,130 -76,102 -8,-6 -14,-28 -14,-48 0,-64 -9,-81 -43,-81 -17,0 -37,7 -46,15 -9,8 -35,31 -58,52 -24,20 -43,43 -43,49 0,7 -7,19 -15,28 -22,21 -75,156 -75,189 0,27 7,31 45,27 21,-2 55,-27 55,-40 0,-17 59,-70 77,-70 26,0 53,31 53,60 0,24 -44,98 -68,113 -7,5 -21,18 -32,29 -19,21 -93,33 -132,22 z"
       id="path1424"
       inkscape:connector-curvature="0" />
    <path
       d="m 3510,8914 c -14,-7 -35,-14 -46,-14 -12,0 -33,-9 -47,-20 -14,-12 -39,-25 -56,-31 -34,-12 -40,-24 -50,-98 -9,-62 19,-176 63,-251 14,-25 30,-54 35,-65 11,-25 55,-66 102,-93 56,-34 134,-30 179,8 l 35,29 -2,81 c -2,67 0,82 13,87 10,4 22,-1 29,-11 25,-33 105,-41 158,-14 29,15 21,57 -15,76 -33,18 -132,106 -205,182 -162,169 -148,159 -193,134 z m 18,-152 c 54,-51 92,-137 98,-227 6,-68 4,-83 -10,-94 -15,-12 -21,-10 -48,15 -17,16 -39,47 -50,69 -10,22 -23,47 -28,55 -12,20 -60,144 -60,156 0,19 32,54 50,54 10,0 31,-13 48,-28 z"
       id="path1426"
       inkscape:connector-curvature="0" />
    <path
       d="m 2780,8859 c -24,-33 -24,-36 10,-144 39,-123 39,-124 -24,-186 -62,-60 -71,-92 -32,-110 29,-14 89,-4 106,16 29,35 74,12 100,-52 7,-18 16,-33 21,-33 4,0 24,-33 45,-72 51,-101 117,-181 170,-208 16,-8 37,-23 48,-33 22,-22 74,-17 94,10 24,33 13,64 -43,125 -30,32 -55,65 -55,71 0,7 -9,18 -20,25 -11,7 -20,18 -20,26 0,7 -9,21 -21,32 -11,10 -38,55 -60,99 -22,44 -46,91 -54,105 -23,40 -18,64 21,96 85,68 104,87 104,104 0,33 -94,33 -178,-1 -31,-13 -34,-12 -53,11 -10,14 -31,50 -45,80 -15,30 -32,58 -38,62 -24,16 -55,7 -76,-23 z"
       id="path1428"
       inkscape:connector-curvature="0" />
    <path
       d="m 5321,8603 c -8,-3 -29,-20 -46,-38 -30,-29 -41,-57 -74,-181 -6,-23 -11,-129 -11,-241 0,-149 -3,-203 -12,-211 -7,-5 -51,-13 -98,-17 -46,-4 -93,-11 -103,-16 -9,-6 -56,-14 -103,-20 -47,-5 -95,-16 -107,-23 -12,-8 -49,-19 -81,-25 -33,-6 -66,-17 -75,-25 -9,-8 -29,-18 -46,-21 -16,-4 -55,-19 -85,-33 -132,-61 -185,-87 -190,-94 -3,-4 -24,-15 -45,-24 -22,-9 -47,-23 -55,-31 -18,-18 -65,-47 -144,-91 -32,-18 -68,-41 -80,-52 -12,-11 -48,-41 -81,-67 -123,-98 -383,-356 -451,-448 -45,-61 -110,-145 -219,-284 -33,-42 -78,-103 -100,-135 -22,-33 -45,-64 -51,-71 -7,-6 -27,-40 -44,-76 -18,-35 -42,-76 -54,-90 -26,-33 -95,-140 -119,-187 -10,-19 -25,-41 -33,-49 -8,-8 -14,-19 -14,-25 0,-6 -10,-25 -23,-42 -13,-17 -29,-45 -36,-63 -7,-18 -19,-38 -27,-44 -19,-16 -18,-60 4,-89 36,-50 98,-100 130,-106 70,-13 124,13 237,115 11,10 34,25 52,34 17,9 33,20 35,24 1,5 23,21 48,37 25,16 64,42 87,58 23,15 44,28 47,28 3,0 14,8 24,18 43,40 129,102 177,127 17,8 50,28 75,45 25,16 63,39 85,51 22,12 42,25 45,28 8,11 109,61 122,61 8,0 29,11 48,24 19,13 46,27 60,31 14,4 32,13 40,20 8,7 39,20 68,30 28,9 52,20 52,24 0,4 19,13 43,20 23,7 49,19 58,27 9,8 42,19 75,25 32,6 66,17 74,24 8,7 42,18 75,25 32,7 68,18 80,25 11,8 64,19 118,25 54,6 114,18 134,26 45,19 287,31 326,15 l 27,-11 v -174 c 0,-263 26,-354 113,-393 54,-25 152,-10 189,28 9,9 31,20 47,24 16,3 35,13 41,20 6,8 27,19 46,25 19,6 34,16 34,21 0,5 20,18 45,29 25,11 45,23 45,27 0,5 28,23 63,41 34,18 73,41 87,51 14,10 50,35 80,54 89,59 173,118 200,141 40,35 117,86 129,86 6,0 11,4 11,9 0,5 33,28 73,51 75,43 138,85 147,99 3,5 20,16 38,25 17,9 32,21 32,25 0,5 16,15 35,21 19,6 35,16 35,21 0,5 17,17 38,27 20,9 40,20 43,25 8,10 116,75 138,82 10,3 26,14 36,25 10,11 24,20 30,20 7,0 32,15 57,34 47,36 78,87 78,128 0,52 -57,127 -159,208 -17,14 -39,32 -49,40 -43,36 -92,70 -101,70 -6,0 -16,9 -23,20 -7,11 -17,20 -22,20 -4,0 -23,12 -41,28 -18,15 -50,41 -71,57 -21,17 -58,49 -83,72 -62,57 -167,142 -216,175 -22,15 -59,45 -83,67 -24,22 -47,41 -51,43 -11,4 -128,107 -154,136 -11,12 -27,22 -34,22 -7,0 -18,9 -25,20 -7,11 -17,20 -22,20 -5,0 -27,16 -50,35 -64,54 -68,58 -124,98 -28,21 -52,43 -52,48 0,5 -5,9 -11,9 -9,0 -63,37 -126,88 -12,9 -38,28 -58,42 -20,14 -52,37 -72,53 -35,26 -85,35 -122,20 z m 255,-508 c 4,-8 11,-15 17,-15 5,0 29,-16 53,-35 23,-19 45,-35 48,-35 3,0 22,-17 43,-38 21,-21 54,-49 73,-62 19,-13 64,-49 100,-79 36,-31 92,-79 125,-106 32,-28 86,-76 118,-108 33,-32 95,-84 138,-117 124,-93 159,-122 213,-172 27,-27 53,-48 58,-48 4,0 14,-13 22,-28 16,-30 6,-62 -19,-62 -7,0 -26,-11 -42,-24 -15,-13 -51,-35 -80,-49 -53,-27 -116,-67 -143,-89 -8,-7 -43,-32 -79,-55 -36,-24 -67,-46 -70,-51 -11,-15 -109,-82 -120,-82 -6,0 -11,-4 -11,-10 0,-5 -28,-27 -62,-49 -35,-22 -70,-46 -79,-53 -8,-8 -42,-30 -74,-48 -32,-18 -66,-41 -75,-49 -10,-9 -41,-29 -70,-46 -29,-16 -64,-40 -77,-52 -17,-15 -39,-23 -64,-23 -45,0 -44,-1 -54,169 -4,60 -12,116 -21,132 -8,15 -14,37 -14,48 0,28 -42,75 -95,106 -45,26 -47,26 -213,22 -92,-2 -185,-8 -207,-14 -22,-6 -95,-16 -163,-22 -68,-6 -136,-18 -152,-26 -16,-8 -59,-19 -95,-24 -37,-5 -77,-16 -89,-25 -13,-8 -52,-20 -87,-26 -35,-6 -71,-18 -79,-25 -8,-7 -35,-18 -60,-25 -25,-7 -52,-18 -60,-25 -8,-7 -35,-18 -60,-25 -25,-7 -52,-18 -60,-24 -8,-7 -35,-20 -60,-29 -105,-36 -136,-50 -153,-68 -10,-10 -24,-19 -31,-19 -7,0 -24,-8 -37,-18 -13,-10 -40,-24 -59,-32 -19,-7 -44,-21 -55,-31 -11,-10 -32,-21 -47,-24 -15,-4 -32,-13 -39,-21 -15,-18 -49,-18 -49,0 0,7 7,19 15,26 8,7 15,18 15,26 0,13 34,56 141,174 32,36 85,97 117,135 79,93 243,249 321,305 35,25 76,56 91,70 49,42 84,67 108,74 12,4 22,11 22,17 0,5 17,16 37,24 21,9 44,22 53,29 8,7 31,19 50,26 19,7 40,18 45,25 6,7 28,18 50,25 22,7 47,18 55,26 9,7 36,17 60,23 25,5 61,16 80,24 19,8 59,17 89,21 30,4 68,14 85,23 17,9 69,20 116,24 47,5 103,13 125,18 22,5 87,15 144,22 93,11 107,16 138,44 42,39 54,100 52,276 -2,144 6,169 52,169 17,0 32,-6 35,-15 z"
       id="path1430"
       inkscape:connector-curvature="0" />
    <path
       d="m 2305,8475 c -59,-36 -93,-66 -122,-107 -22,-33 -25,-47 -25,-118 0,-98 19,-141 96,-222 50,-51 59,-57 108,-63 29,-3 121,-4 205,-3 l 152,3 33,-32 c 27,-27 32,-40 31,-74 -2,-48 -19,-70 -72,-93 -35,-16 -42,-17 -85,-2 -77,26 -109,22 -140,-19 l -27,-35 31,-40 c 25,-32 39,-40 78,-46 67,-10 170,9 215,39 34,23 97,83 97,93 0,3 11,21 24,42 39,63 41,107 7,178 -25,53 -73,104 -97,104 -4,0 -16,8 -26,17 -16,14 -46,17 -207,18 -200,2 -194,1 -260,53 -19,15 -25,32 -29,77 -5,65 2,75 57,75 22,0 43,-8 58,-22 16,-15 40,-23 77,-26 51,-4 57,-2 86,26 20,21 28,36 24,49 -9,23 -95,113 -109,113 -6,0 -27,9 -48,20 -48,26 -83,25 -132,-5 z"
       id="path1432"
       inkscape:connector-curvature="0" />
    <path
       d="m 1783,7620 c -13,-5 -23,-14 -23,-20 0,-5 -6,-10 -13,-10 -15,0 -75,-62 -100,-102 -23,-36 -22,-48 11,-131 45,-118 188,-249 282,-260 91,-11 192,30 219,89 14,31 14,87 0,139 -10,36 -74,124 -119,165 -9,8 -27,30 -40,49 -13,18 -37,40 -54,48 -17,8 -42,21 -56,28 -28,16 -74,18 -107,5 z m 109,-155 c 16,-14 35,-25 42,-25 22,0 60,-42 89,-98 31,-62 34,-98 10,-124 -20,-22 -71,-24 -79,-3 -4,8 -12,15 -20,15 -8,0 -27,12 -43,28 -16,15 -38,34 -48,44 -60,54 -83,93 -83,142 0,38 8,44 64,45 27,1 47,-6 68,-24 z"
       id="path1434"
       inkscape:connector-curvature="0" />
    <path
       d="m 1183,7595 c -7,-8 -18,-17 -25,-22 -14,-8 -68,-113 -68,-130 0,-6 -10,-23 -22,-39 -28,-35 -78,-134 -78,-154 0,-8 -11,-37 -25,-65 -13,-27 -30,-74 -36,-103 -11,-45 -10,-58 4,-87 9,-19 23,-35 30,-35 21,0 69,60 107,132 21,41 41,68 51,68 30,0 152,-106 385,-337 41,-40 79,-73 86,-73 6,0 21,-9 33,-20 12,-12 35,-22 50,-23 24,-2 33,5 52,38 13,23 20,48 17,60 -6,21 -65,81 -148,150 -27,22 -115,105 -197,185 -82,80 -165,160 -184,178 -42,39 -43,48 -10,92 14,19 25,39 25,45 0,6 11,26 25,45 14,19 25,44 25,55 0,45 -68,73 -97,40 z"
       id="path1436"
       inkscape:connector-curvature="0" />
  </g>
</svg>
